<svg clip-rule="evenodd" fill-rule="evenodd" stroke-linejoin="round" stroke-miterlimit="2" viewBox="0 0 1655 202" xmlns="http://www.w3.org/2000/svg"><g fill-rule="nonzero"><path d="m0 19.627h8.257c0 4.06 3.925 7.106 9.001 7.106 4.737 0 8.527-2.572 8.527-6.294 0-9.272-24.973-5.076-24.973-20.98 0-8.392 7.174-13.806 16.175-13.806 9.272 0 16.31 5.888 16.31 13.738h-8.257c0-3.722-3.519-6.497-8.189-6.497-4.195 0-7.783 2.302-7.783 5.956 0 9.272 25.041 4.467 25.041 20.709 0 8.731-7.512 14.415-16.919 14.415-9.813 0-17.19-6.226-17.19-14.347" transform="matrix(4.166667 0 0 4.166667 887.1842377238 59.7791720261)"/><path d="m0 19.627h8.257c0 4.06 3.925 7.106 9.001 7.106 4.737 0 8.527-2.572 8.527-6.294 0-9.272-24.973-5.076-24.973-20.98 0-8.392 7.174-13.806 16.175-13.806 9.272 0 16.31 5.888 16.31 13.738h-8.257c0-3.722-3.519-6.497-8.189-6.497-4.195 0-7.783 2.302-7.783 5.956 0 9.272 25.041 4.467 25.041 20.709 0 8.731-7.512 14.415-16.919 14.415-9.813 0-17.19-6.226-17.19-14.347" transform="matrix(4.166667 0 0 4.166667 1512.2630377301 59.7791720261)"/><path d="m0-46.697h-18.137v23.551h8.053v-15.971h9.949c8.933 0 15.633 6.767 15.633 15.768s-6.7 15.769-15.633 15.769h-9.949v-9.813h-8.053v17.393h18.137c13.603 0 23.755-10.016 23.755-23.349 0-13.332-10.152-23.348-23.755-23.348" transform="matrix(4.166667 0 0 4.166667 296.0071070963 197.9558497469)"/><path d="m0-46.697h-9.542l-9.284 23.551h8.238l5.715-15.898 7.783 21.651h-24.004l-6.857 17.393h8.663l3.79-9.949h21.25l3.79 9.949h8.866z" transform="matrix(4.166667 0 0 4.166667 116.4625093994 197.9558497469)"/><path d="m0-46.697h-9.542l-9.285 23.552h8.239l5.715-15.899 7.783 21.651h-24.004l-6.857 17.393h8.663l3.79-9.949h21.25l3.79 9.949h8.866z" transform="matrix(4.166667 0 0 4.166667 522.6092085578 197.9550164135)"/></g><path d="m634.370050832 125.486260616h33.554169351v72.470839131h-33.554169351z" stroke-width="4.166667"/><path d="m0 9.406h8.053v-23.551h-9.948l-15.363 26.461-15.362-26.461h-10.016v23.551h8.053v-11.843l14.957 25.988h4.602l15.024-25.988z" fill-rule="nonzero" transform="matrix(4.166667 0 0 4.166667 812.020065044 62.3241722297)"/><path d="m812.020065044 125.486260616h33.554169351v72.470839131h-33.554169351z" stroke-width="4.166667"/><path d="m0-48.321c-13.941 0-24.566 10.422-24.566 24.161 0 .068.004.135.004.202h8.325c-.001-.067-.005-.134-.005-.202 0-9.34 7.038-16.378 16.242-16.378 9.272 0 16.31 7.038 16.31 16.378 0 9.339-7.038 16.377-16.31 16.377-7.111 0-12.926-4.204-15.204-10.422h-8.66c2.578 10.684 12.023 18.205 23.864 18.205 14.009 0 24.567-10.422 24.567-24.16 0-13.739-10.558-24.161-24.567-24.161" fill-rule="nonzero" transform="matrix(4.166667 0 0 4.166667 1166.9942601086 201.3387666842)"/><path d="m0 11.911v3.722l-23.348-33.026h-8.19v23.551h8.054v-9.88l23.349 33.026h8.188v-17.393z" fill-rule="nonzero" transform="matrix(4.166667 0 0 4.166667 1439.3113652273 75.8562566456)"/><path d="m346.682 24.905h8.053v23.551h-8.053z" transform="matrix(-4.166667 0 0 4.166667 2917.374400139 -100.384590787)"/><path d="m1307.903438048 125.486260616h33.558336018v72.470839131h-33.558336018z" stroke-width="4.166667"/></svg>