<svg clip-rule="evenodd" fill-rule="evenodd" stroke-linejoin="round" stroke-miterlimit="2" viewBox="0 0 677 677" xmlns="http://www.w3.org/2000/svg"><path d="m795.904 750.72 124.992 124.928c5.76 5.964 8.983 13.939 8.983 22.231 0 17.554-14.446 32-32 32-8.292 0-16.267-3.223-22.231-8.983l-124.992-124.992c-75.369 64.573-171.413 100.091-270.661 100.091-228.211 0-416-187.789-416-416s187.789-416 416-416 416 187.789 416 416c0 99.248-35.518 195.292-100.091 270.661zm-315.904 81.28c193.101 0 352-158.899 352-352s-158.899-352-352-352-352 158.899-352 352 158.899 352 352 352z" fill-rule="nonzero" transform="matrix(.78125 0 0 .78125 -49.996009 -49.996009)"/></svg>